<mxfile host="app.diagrams.net" modified="2020-10-12T19:07:34.396Z" agent="5.0 (X11)" etag="AKm9Ddh3sBQopRHTs4sZ" version="13.7.9" type="github">
  <diagram id="BidqIHInNIvZiYCmbNtS" name="Page-1">
    <mxGraphModel dx="723" dy="359" grid="1" gridSize="10" guides="1" tooltips="1" connect="1" arrows="1" fold="1" page="1" pageScale="1" pageWidth="850" pageHeight="1100" math="0" shadow="0">
      <root>
        <mxCell id="0" />
        <mxCell id="1" parent="0" />
        <mxCell id="iO957vLTAEIwB8R3Ft5C-2" value="" style="endArrow=none;html=1;entryX=0.5;entryY=1;entryDx=0;entryDy=0;" edge="1" parent="1">
          <mxGeometry width="50" height="50" relative="1" as="geometry">
            <mxPoint x="425" y="180" as="sourcePoint" />
            <mxPoint x="425" y="120" as="targetPoint" />
          </mxGeometry>
        </mxCell>
        <mxCell id="iO957vLTAEIwB8R3Ft5C-3" value="&lt;div align=&quot;justify&quot;&gt;login&amp;nbsp;&amp;nbsp;&amp;nbsp; = input&lt;/div&gt;&lt;div align=&quot;justify&quot;&gt;password = input&lt;br&gt;&lt;/div&gt;" style="rounded=0;whiteSpace=wrap;html=1;fontFamily=Courier New;align=left;" vertex="1" parent="1">
          <mxGeometry x="365" y="180" width="120" height="60" as="geometry" />
        </mxCell>
        <mxCell id="iO957vLTAEIwB8R3Ft5C-4" value="ввод данных" style="ellipse;whiteSpace=wrap;html=1;fillColor=#f8cecc;strokeColor=#b85450;fontFamily=Courier New;fontStyle=1" vertex="1" parent="1">
          <mxGeometry x="365" y="40" width="120" height="80" as="geometry" />
        </mxCell>
        <mxCell id="iO957vLTAEIwB8R3Ft5C-5" value="" style="endArrow=none;html=1;fontFamily=Courier New;entryX=0.5;entryY=1;entryDx=0;entryDy=0;" edge="1" parent="1" target="iO957vLTAEIwB8R3Ft5C-3">
          <mxGeometry width="50" height="50" relative="1" as="geometry">
            <mxPoint x="425" y="300" as="sourcePoint" />
            <mxPoint x="505" y="210" as="targetPoint" />
          </mxGeometry>
        </mxCell>
        <mxCell id="iO957vLTAEIwB8R3Ft5C-6" value="Авторизация пользователя" style="text;html=1;strokeColor=none;fillColor=none;align=center;verticalAlign=middle;whiteSpace=wrap;rounded=0;fontFamily=Courier New;" vertex="1" parent="1">
          <mxGeometry x="260" y="30" width="40" height="20" as="geometry" />
        </mxCell>
        <mxCell id="iO957vLTAEIwB8R3Ft5C-9" value="&lt;div&gt;login, password&lt;/div&gt;&lt;div&gt; ==&lt;/div&gt;&lt;div&gt;{login, password}&lt;br&gt; &lt;/div&gt;" style="rhombus;whiteSpace=wrap;html=1;fontFamily=Courier New;fillColor=#fff2cc;strokeColor=#d6b656;" vertex="1" parent="1">
          <mxGeometry x="338" y="300" width="175" height="120" as="geometry" />
        </mxCell>
        <mxCell id="iO957vLTAEIwB8R3Ft5C-10" value="" style="endArrow=none;html=1;fontFamily=Courier New;exitX=1;exitY=0.5;exitDx=0;exitDy=0;" edge="1" parent="1" source="iO957vLTAEIwB8R3Ft5C-9">
          <mxGeometry width="50" height="50" relative="1" as="geometry">
            <mxPoint x="460" y="400" as="sourcePoint" />
            <mxPoint x="680" y="360" as="targetPoint" />
          </mxGeometry>
        </mxCell>
        <mxCell id="iO957vLTAEIwB8R3Ft5C-11" value="" style="endArrow=none;html=1;fontFamily=Courier New;entryX=0;entryY=0.5;entryDx=0;entryDy=0;" edge="1" parent="1" target="iO957vLTAEIwB8R3Ft5C-9">
          <mxGeometry width="50" height="50" relative="1" as="geometry">
            <mxPoint x="200" y="360" as="sourcePoint" />
            <mxPoint x="510" y="350" as="targetPoint" />
          </mxGeometry>
        </mxCell>
        <mxCell id="iO957vLTAEIwB8R3Ft5C-12" value="ошибка авторизации" style="rounded=0;whiteSpace=wrap;html=1;fontFamily=Courier New;" vertex="1" parent="1">
          <mxGeometry x="140" y="480" width="120" height="60" as="geometry" />
        </mxCell>
        <mxCell id="iO957vLTAEIwB8R3Ft5C-13" value="вход" style="rounded=0;whiteSpace=wrap;html=1;fontFamily=Courier New;" vertex="1" parent="1">
          <mxGeometry x="620" y="480" width="120" height="60" as="geometry" />
        </mxCell>
        <mxCell id="iO957vLTAEIwB8R3Ft5C-14" value="" style="endArrow=none;html=1;fontFamily=Courier New;" edge="1" parent="1">
          <mxGeometry width="50" height="50" relative="1" as="geometry">
            <mxPoint x="200" y="480" as="sourcePoint" />
            <mxPoint x="200" y="360" as="targetPoint" />
          </mxGeometry>
        </mxCell>
        <mxCell id="iO957vLTAEIwB8R3Ft5C-15" value="" style="endArrow=none;html=1;fontFamily=Courier New;" edge="1" parent="1">
          <mxGeometry width="50" height="50" relative="1" as="geometry">
            <mxPoint x="680" y="480" as="sourcePoint" />
            <mxPoint x="680" y="360" as="targetPoint" />
          </mxGeometry>
        </mxCell>
        <mxCell id="iO957vLTAEIwB8R3Ft5C-17" value="" style="endArrow=none;html=1;fontFamily=Courier New;entryX=0.5;entryY=1;entryDx=0;entryDy=0;" edge="1" parent="1" target="iO957vLTAEIwB8R3Ft5C-13">
          <mxGeometry width="50" height="50" relative="1" as="geometry">
            <mxPoint x="680" y="640" as="sourcePoint" />
            <mxPoint x="500" y="510" as="targetPoint" />
          </mxGeometry>
        </mxCell>
        <mxCell id="iO957vLTAEIwB8R3Ft5C-18" value="Из БД" style="text;html=1;strokeColor=none;fillColor=none;align=center;verticalAlign=middle;whiteSpace=wrap;rounded=0;fontFamily=Courier New;" vertex="1" parent="1">
          <mxGeometry x="485" y="430" width="40" height="20" as="geometry" />
        </mxCell>
        <mxCell id="iO957vLTAEIwB8R3Ft5C-19" value="" style="endArrow=classic;html=1;fontFamily=Courier New;exitX=0;exitY=0;exitDx=0;exitDy=0;" edge="1" parent="1" source="iO957vLTAEIwB8R3Ft5C-18" target="iO957vLTAEIwB8R3Ft5C-9">
          <mxGeometry width="50" height="50" relative="1" as="geometry">
            <mxPoint x="450" y="460" as="sourcePoint" />
            <mxPoint x="500" y="410" as="targetPoint" />
          </mxGeometry>
        </mxCell>
        <mxCell id="iO957vLTAEIwB8R3Ft5C-21" value="первый вход" style="rhombus;whiteSpace=wrap;html=1;fontFamily=Courier New;fillColor=#fff2cc;strokeColor=#d6b656;" vertex="1" parent="1">
          <mxGeometry x="630" y="630" width="100" height="100" as="geometry" />
        </mxCell>
        <mxCell id="iO957vLTAEIwB8R3Ft5C-22" value="" style="endArrow=none;html=1;fontFamily=Courier New;entryX=1;entryY=0.5;entryDx=0;entryDy=0;" edge="1" parent="1" target="iO957vLTAEIwB8R3Ft5C-21">
          <mxGeometry width="50" height="50" relative="1" as="geometry">
            <mxPoint x="880" y="680" as="sourcePoint" />
            <mxPoint x="750" y="700" as="targetPoint" />
          </mxGeometry>
        </mxCell>
        <mxCell id="iO957vLTAEIwB8R3Ft5C-23" value="" style="endArrow=none;html=1;fontFamily=Courier New;entryX=0;entryY=0.5;entryDx=0;entryDy=0;" edge="1" parent="1" target="iO957vLTAEIwB8R3Ft5C-21">
          <mxGeometry width="50" height="50" relative="1" as="geometry">
            <mxPoint x="480" y="680" as="sourcePoint" />
            <mxPoint x="670" y="690" as="targetPoint" />
          </mxGeometry>
        </mxCell>
        <mxCell id="iO957vLTAEIwB8R3Ft5C-24" value="" style="endArrow=none;html=1;fontFamily=Courier New;" edge="1" parent="1">
          <mxGeometry width="50" height="50" relative="1" as="geometry">
            <mxPoint x="880" y="830" as="sourcePoint" />
            <mxPoint x="880" y="680" as="targetPoint" />
          </mxGeometry>
        </mxCell>
        <mxCell id="iO957vLTAEIwB8R3Ft5C-25" value="&lt;div&gt;выбор соцсетей&lt;/div&gt;" style="rounded=0;whiteSpace=wrap;html=1;fontFamily=Courier New;" vertex="1" parent="1">
          <mxGeometry x="820" y="830" width="120" height="60" as="geometry" />
        </mxCell>
        <mxCell id="iO957vLTAEIwB8R3Ft5C-26" value="" style="endArrow=none;html=1;fontFamily=Courier New;" edge="1" parent="1">
          <mxGeometry width="50" height="50" relative="1" as="geometry">
            <mxPoint x="880" y="1040" as="sourcePoint" />
            <mxPoint x="880" y="891" as="targetPoint" />
          </mxGeometry>
        </mxCell>
        <mxCell id="iO957vLTAEIwB8R3Ft5C-27" value="&lt;div&gt;ввод данных&lt;/div&gt;&lt;div&gt; для них&lt;/div&gt;" style="rounded=0;whiteSpace=wrap;html=1;fontFamily=Courier New;" vertex="1" parent="1">
          <mxGeometry x="820" y="1040" width="120" height="60" as="geometry" />
        </mxCell>
        <mxCell id="iO957vLTAEIwB8R3Ft5C-28" value="выбор соцсети" style="rounded=0;whiteSpace=wrap;html=1;fontFamily=Courier New;" vertex="1" parent="1">
          <mxGeometry x="420" y="830" width="120" height="60" as="geometry" />
        </mxCell>
        <mxCell id="iO957vLTAEIwB8R3Ft5C-29" value="" style="endArrow=none;html=1;fontFamily=Courier New;" edge="1" parent="1" source="iO957vLTAEIwB8R3Ft5C-28">
          <mxGeometry width="50" height="50" relative="1" as="geometry">
            <mxPoint x="580" y="890" as="sourcePoint" />
            <mxPoint x="480" y="680" as="targetPoint" />
          </mxGeometry>
        </mxCell>
        <mxCell id="iO957vLTAEIwB8R3Ft5C-31" value="" style="endArrow=none;html=1;fontFamily=Courier New;entryX=0.5;entryY=1;entryDx=0;entryDy=0;" edge="1" parent="1" target="iO957vLTAEIwB8R3Ft5C-28">
          <mxGeometry width="50" height="50" relative="1" as="geometry">
            <mxPoint x="480" y="1040" as="sourcePoint" />
            <mxPoint x="530" y="980" as="targetPoint" />
          </mxGeometry>
        </mxCell>
        <mxCell id="iO957vLTAEIwB8R3Ft5C-32" value="" style="endArrow=none;html=1;fontFamily=Courier New;" edge="1" parent="1">
          <mxGeometry width="50" height="50" relative="1" as="geometry">
            <mxPoint x="480" y="920" as="sourcePoint" />
            <mxPoint x="640" y="920" as="targetPoint" />
          </mxGeometry>
        </mxCell>
        <mxCell id="iO957vLTAEIwB8R3Ft5C-33" value="" style="endArrow=none;html=1;fontFamily=Courier New;" edge="1" parent="1">
          <mxGeometry width="50" height="50" relative="1" as="geometry">
            <mxPoint x="320" y="920" as="sourcePoint" />
            <mxPoint x="480" y="920" as="targetPoint" />
          </mxGeometry>
        </mxCell>
        <mxCell id="iO957vLTAEIwB8R3Ft5C-34" value="" style="endArrow=none;html=1;fontFamily=Courier New;" edge="1" parent="1">
          <mxGeometry width="50" height="50" relative="1" as="geometry">
            <mxPoint x="640" y="1040" as="sourcePoint" />
            <mxPoint x="640" y="920" as="targetPoint" />
          </mxGeometry>
        </mxCell>
        <mxCell id="iO957vLTAEIwB8R3Ft5C-35" value="" style="endArrow=none;html=1;fontFamily=Courier New;" edge="1" parent="1">
          <mxGeometry width="50" height="50" relative="1" as="geometry">
            <mxPoint x="320" y="1040" as="sourcePoint" />
            <mxPoint x="320" y="920" as="targetPoint" />
          </mxGeometry>
        </mxCell>
        <mxCell id="iO957vLTAEIwB8R3Ft5C-37" value="телеграм" style="rounded=0;whiteSpace=wrap;html=1;fontFamily=Courier New;" vertex="1" parent="1">
          <mxGeometry x="260" y="1040" width="120" height="60" as="geometry" />
        </mxCell>
        <mxCell id="iO957vLTAEIwB8R3Ft5C-38" value="инстаграм" style="rounded=0;whiteSpace=wrap;html=1;fontFamily=Courier New;" vertex="1" parent="1">
          <mxGeometry x="420" y="1040" width="120" height="60" as="geometry" />
        </mxCell>
        <mxCell id="iO957vLTAEIwB8R3Ft5C-39" value="фейсбук" style="rounded=0;whiteSpace=wrap;html=1;fontFamily=Courier New;" vertex="1" parent="1">
          <mxGeometry x="580" y="1040" width="120" height="60" as="geometry" />
        </mxCell>
        <mxCell id="iO957vLTAEIwB8R3Ft5C-40" value="" style="endArrow=none;html=1;fontFamily=Courier New;entryX=0.5;entryY=1;entryDx=0;entryDy=0;" edge="1" parent="1" target="iO957vLTAEIwB8R3Ft5C-37">
          <mxGeometry width="50" height="50" relative="1" as="geometry">
            <mxPoint x="320" y="1240" as="sourcePoint" />
            <mxPoint x="550" y="1090" as="targetPoint" />
          </mxGeometry>
        </mxCell>
        <mxCell id="iO957vLTAEIwB8R3Ft5C-41" value="" style="endArrow=none;html=1;fontFamily=Courier New;entryX=0.5;entryY=1;entryDx=0;entryDy=0;" edge="1" parent="1">
          <mxGeometry width="50" height="50" relative="1" as="geometry">
            <mxPoint x="479.65999999999997" y="1240" as="sourcePoint" />
            <mxPoint x="479.65999999999997" y="1100" as="targetPoint" />
          </mxGeometry>
        </mxCell>
        <mxCell id="iO957vLTAEIwB8R3Ft5C-42" value="" style="endArrow=none;html=1;fontFamily=Courier New;entryX=0.5;entryY=1;entryDx=0;entryDy=0;" edge="1" parent="1">
          <mxGeometry width="50" height="50" relative="1" as="geometry">
            <mxPoint x="639.6599999999999" y="1240" as="sourcePoint" />
            <mxPoint x="639.6599999999999" y="1100" as="targetPoint" />
          </mxGeometry>
        </mxCell>
        <mxCell id="iO957vLTAEIwB8R3Ft5C-45" value="ввод данных" style="rounded=0;whiteSpace=wrap;html=1;fontFamily=Courier New;" vertex="1" parent="1">
          <mxGeometry x="260" y="1240" width="120" height="60" as="geometry" />
        </mxCell>
        <mxCell id="iO957vLTAEIwB8R3Ft5C-47" value="ввод данных" style="rounded=0;whiteSpace=wrap;html=1;fontFamily=Courier New;" vertex="1" parent="1">
          <mxGeometry x="420" y="1240" width="120" height="60" as="geometry" />
        </mxCell>
        <mxCell id="iO957vLTAEIwB8R3Ft5C-48" value="ввод данных" style="rounded=0;whiteSpace=wrap;html=1;fontFamily=Courier New;" vertex="1" parent="1">
          <mxGeometry x="580" y="1240" width="120" height="60" as="geometry" />
        </mxCell>
        <mxCell id="iO957vLTAEIwB8R3Ft5C-50" value="" style="endArrow=none;html=1;fontFamily=Courier New;entryX=0.5;entryY=1;entryDx=0;entryDy=0;" edge="1" parent="1">
          <mxGeometry width="50" height="50" relative="1" as="geometry">
            <mxPoint x="479.58000000000004" y="1440" as="sourcePoint" />
            <mxPoint x="479.58000000000004" y="1300" as="targetPoint" />
          </mxGeometry>
        </mxCell>
        <mxCell id="iO957vLTAEIwB8R3Ft5C-51" value="" style="rounded=0;whiteSpace=wrap;html=1;fontFamily=Courier New;" vertex="1" parent="1">
          <mxGeometry x="420" y="1440" width="120" height="60" as="geometry" />
        </mxCell>
      </root>
    </mxGraphModel>
  </diagram>
</mxfile>
